<svg width="132" height="24" viewBox="0 0 132 24" fill="none" xmlns="http://www.w3.org/2000/svg">
<rect x="44.877" y="9.8649" width="8.80565" height="1.3289" rx="0.664452" fill="#5679F5"/>
<rect x="47.6519" y="7.09636" width="5.68149" height="1.3289" rx="0.664452" fill="#5679F5"/>
<rect x="47.6519" y="12.5782" width="5.68149" height="1.3289" rx="0.664452" fill="#5679F5"/>
<path d="M46.4533 20.0399C44.9721 20.0399 43.5903 19.8007 42.3079 19.3223C41.0435 18.8439 39.9416 18.1705 39.0024 17.3023C38.0812 16.4341 37.3586 15.4153 36.8348 14.2458C36.3291 13.0764 36.0762 11.8007 36.0762 10.4186C36.0762 9.03654 36.3291 7.7608 36.8348 6.59136C37.3586 5.42193 38.0902 4.4031 39.0295 3.53488C39.9687 2.66667 41.0706 1.99335 42.335 1.51495C43.5994 1.03654 44.9721 0.797343 46.4533 0.797343C47.9525 0.797343 49.3253 1.03654 50.5716 1.51495C51.836 1.99335 52.9288 2.66667 53.8501 3.53488C54.7893 4.38538 55.5209 5.39535 56.0447 6.56478C56.5685 7.73422 56.8304 9.01883 56.8304 10.4186C56.8304 11.8007 56.5685 13.0853 56.0447 14.2724C55.5209 15.4419 54.7893 16.4607 53.8501 17.3289C52.9288 18.1794 51.836 18.8439 50.5716 19.3223C49.3253 19.8007 47.9525 20.0399 46.4533 20.0399ZM52.6579 24C51.9173 24 51.2129 23.9203 50.5445 23.7608C49.8943 23.6013 49.244 23.3444 48.5938 22.99C47.9616 22.6357 47.2932 22.1573 46.5888 21.5548C45.9024 20.9524 45.1528 20.2082 44.3399 19.3223L48.946 18.1794C49.4337 18.835 49.8852 19.3577 50.3007 19.7475C50.7161 20.1373 51.1135 20.412 51.4928 20.5714C51.8902 20.7309 52.3057 20.8106 52.7392 20.8106C53.8952 20.8106 54.9248 20.3499 55.8279 19.4286L57.7787 21.7143C56.4963 23.2381 54.7893 24 52.6579 24ZM46.4533 16.3721C47.3023 16.3721 48.079 16.2303 48.7834 15.9468C49.5059 15.6633 50.1381 15.2558 50.68 14.7243C51.2219 14.1927 51.6373 13.5637 51.9264 12.8372C52.2334 12.093 52.387 11.2868 52.387 10.4186C52.387 9.53267 52.2334 8.72647 51.9264 8C51.6373 7.27353 51.2219 6.64452 50.68 6.11296C50.1381 5.5814 49.5059 5.17386 48.7834 4.89037C48.079 4.60687 47.3023 4.46512 46.4533 4.46512C45.6043 4.46512 44.8186 4.60687 44.0961 4.89037C43.3736 5.17386 42.7414 5.5814 42.1995 6.11296C41.6757 6.64452 41.2602 7.27353 40.9532 8C40.6641 8.72647 40.5196 9.53267 40.5196 10.4186C40.5196 11.2868 40.6641 12.093 40.9532 12.8372C41.2602 13.5637 41.6757 14.1927 42.1995 14.7243C42.7414 15.2558 43.3736 15.6633 44.0961 15.9468C44.8186 16.2303 45.6043 16.3721 46.4533 16.3721Z" fill="#5679F5"/>
<path d="M64.4914 19.9336C63.2811 19.9336 62.1974 19.7032 61.24 19.2425C60.3008 18.7818 59.5692 18.082 59.0454 17.1429C58.5216 16.186 58.2597 14.9723 58.2597 13.5017V5.42193H62.4864V12.8904C62.4864 14.0775 62.7393 14.9546 63.245 15.5216C63.7688 16.0709 64.5004 16.3455 65.4397 16.3455C66.0899 16.3455 66.6679 16.2126 67.1737 15.9468C67.6795 15.6633 68.0768 15.2381 68.3658 14.6711C68.6548 14.0864 68.7993 13.3599 68.7993 12.4917V5.42193H73.0261V19.7209H69.0161V15.7874L69.7477 16.9302C69.26 17.9225 68.5374 18.6755 67.5801 19.1894C66.6408 19.6855 65.6113 19.9336 64.4914 19.9336Z" fill="#5679F5"/>
<path d="M82.3878 19.9336C80.8344 19.9336 79.4526 19.6146 78.2424 18.9767C77.0502 18.3389 76.1019 17.4707 75.3974 16.3721C74.7111 15.2558 74.3679 13.9889 74.3679 12.5714C74.3679 11.1362 74.7111 9.86933 75.3974 8.77076C76.1019 7.65449 77.0502 6.78627 78.2424 6.16611C79.4526 5.52824 80.8344 5.2093 82.3878 5.2093C83.9231 5.2093 85.2959 5.52824 86.5061 6.16611C87.7163 6.78627 88.6646 7.64563 89.351 8.74419C90.0374 9.84275 90.3806 11.1185 90.3806 12.5714C90.3806 13.9889 90.0374 15.2558 89.351 16.3721C88.6646 17.4707 87.7163 18.3389 86.5061 18.9767C85.2959 19.6146 83.9231 19.9336 82.3878 19.9336ZM82.3878 16.5316C83.0922 16.5316 83.7244 16.3721 84.2844 16.0532C84.8443 15.7342 85.2869 15.2824 85.612 14.6977C85.9371 14.0952 86.0997 13.3865 86.0997 12.5714C86.0997 11.7386 85.9371 11.0299 85.612 10.4452C85.2869 9.86047 84.8443 9.40864 84.2844 9.0897C83.7244 8.77077 83.0922 8.6113 82.3878 8.6113C81.6833 8.6113 81.0511 8.77077 80.4912 9.0897C79.9312 9.40864 79.4797 9.86047 79.1365 10.4452C78.8113 11.0299 78.6488 11.7386 78.6488 12.5714C78.6488 13.3865 78.8113 14.0952 79.1365 14.6977C79.4797 15.2824 79.9312 15.7342 80.4912 16.0532C81.0511 16.3721 81.6833 16.5316 82.3878 16.5316Z" fill="#5679F5"/>
<path d="M97.6764 19.9336C95.9604 19.9336 94.6238 19.5083 93.6664 18.6578C92.7091 17.7896 92.2304 16.505 92.2304 14.804V2.25914H96.4571V14.7508C96.4571 15.3533 96.6197 15.8228 96.9448 16.1595C97.27 16.4784 97.7125 16.6379 98.2725 16.6379C98.9408 16.6379 99.5098 16.4607 99.9794 16.1063L101.117 19.0299C100.684 19.3311 100.16 19.5615 99.5459 19.7209C98.9498 19.8627 98.3267 19.9336 97.6764 19.9336ZM89.9816 8.93023V5.74086H100.088V8.93023H89.9816Z" fill="#5679F5"/>
<path d="M108.784 19.9336C107.122 19.9336 105.659 19.6146 104.395 18.9767C103.149 18.3389 102.182 17.4707 101.496 16.3721C100.809 15.2558 100.466 13.9889 100.466 12.5714C100.466 11.1362 100.8 9.86933 101.469 8.77076C102.155 7.65449 103.085 6.78627 104.259 6.16611C105.434 5.52824 106.761 5.2093 108.242 5.2093C109.669 5.2093 110.952 5.51052 112.09 6.11296C113.246 6.69767 114.158 7.54817 114.826 8.66445C115.495 9.76301 115.829 11.0831 115.829 12.6246C115.829 12.7841 115.82 12.9701 115.802 13.1827C115.784 13.3776 115.766 13.5637 115.747 13.7409H103.907V11.3223H113.526L111.9 12.0399C111.9 11.2957 111.747 10.6489 111.439 10.0997C111.132 9.55039 110.708 9.12514 110.166 8.82392C109.624 8.50498 108.992 8.34552 108.269 8.34552C107.547 8.34552 106.906 8.50498 106.346 8.82392C105.804 9.12514 105.379 9.55925 105.072 10.1262C104.765 10.6755 104.612 11.3311 104.612 12.093V12.7309C104.612 13.5105 104.783 14.2016 105.126 14.804C105.488 15.3887 105.984 15.8405 106.617 16.1595C107.267 16.4607 108.026 16.6113 108.893 16.6113C109.669 16.6113 110.347 16.4961 110.925 16.2658C111.521 16.0354 112.063 15.6899 112.55 15.2292L114.799 17.6213C114.131 18.3654 113.291 18.9413 112.279 19.3488C111.268 19.7386 110.103 19.9336 108.784 19.9336Z" fill="#5679F5"/>
<path d="M123.411 19.9336C122.039 19.9336 120.801 19.6323 119.699 19.0299C118.598 18.4097 117.722 17.5504 117.071 16.4518C116.439 15.3533 116.123 14.0598 116.123 12.5714C116.123 11.0653 116.439 9.76301 117.071 8.66445C117.722 7.56589 118.598 6.71539 119.699 6.11296C120.801 5.51052 122.039 5.2093 123.411 5.2093C124.64 5.2093 125.714 5.47508 126.636 6.00664C127.557 6.53821 128.27 7.34441 128.776 8.42525C129.282 9.50609 129.535 10.8882 129.535 12.5714C129.535 14.237 129.291 15.6191 128.803 16.7176C128.315 17.7985 127.611 18.6047 126.69 19.1362C125.787 19.6678 124.694 19.9336 123.411 19.9336ZM124.143 16.5316C124.829 16.5316 125.452 16.3721 126.012 16.0532C126.572 15.7342 127.015 15.2824 127.34 14.6977C127.683 14.0952 127.855 13.3865 127.855 12.5714C127.855 11.7386 127.683 11.0299 127.34 10.4452C127.015 9.86047 126.572 9.40864 126.012 9.0897C125.452 8.77077 124.829 8.6113 124.143 8.6113C123.438 8.6113 122.806 8.77077 122.246 9.0897C121.686 9.40864 121.235 9.86047 120.892 10.4452C120.566 11.0299 120.404 11.7386 120.404 12.5714C120.404 13.3865 120.566 14.0952 120.892 14.6977C121.235 15.2824 121.686 15.7342 122.246 16.0532C122.806 16.3721 123.438 16.5316 124.143 16.5316ZM127.963 19.7209V16.7973L128.044 12.5449L127.774 8.31894V0H132V19.7209H127.963Z" fill="#5679F5"/>
<path d="M8.5889 20.0399C5.89753 20.0399 3.79321 19.3046 2.27592 17.8339C0.758641 16.3632 0 14.2636 0 11.5349V1.11629H4.38928V11.3754C4.38928 13.1473 4.75957 14.423 5.50015 15.2027C6.24073 15.9823 7.27934 16.3721 8.61599 16.3721C9.95265 16.3721 10.9913 15.9823 11.7318 15.2027C12.4724 14.423 12.8427 13.1473 12.8427 11.3754V1.11629H17.1778V11.5349C17.1778 14.2636 16.4192 16.3632 14.9019 17.8339C13.3846 19.3046 11.2803 20.0399 8.5889 20.0399Z" fill="#393A51"/>
<path d="M28.5868 5.20931C29.7429 5.20931 30.7724 5.43965 31.6756 5.90034C32.5968 6.34331 33.3193 7.03434 33.8431 7.97343C34.367 8.8948 34.6289 10.082 34.6289 11.5349V19.7209H30.4022V12.1728C30.4022 11.0211 30.1402 10.1706 29.6164 9.62127C29.1107 9.07199 28.3881 8.79735 27.4489 8.79735C26.7806 8.79735 26.1754 8.9391 25.6336 9.2226C25.1097 9.48838 24.6943 9.90477 24.3872 10.4718C24.0982 11.0388 23.9537 11.7652 23.9537 12.6512V19.7209H19.727V5.42194H23.764V9.38207L23.0054 8.18606C23.5292 7.22925 24.2788 6.49392 25.2542 5.98008C26.2296 5.46623 27.3405 5.20931 28.5868 5.20931Z" fill="#393A51"/>
</svg>
